<svg width="600px" height="600px" xmlns="http://www.w3.org/2000/svg" xmlns:xlink="http://www.w3.org/1999/xlink">
<g style="">  <path d="M355.000000,63.000000 C314.790001,60.880000,320.139999,112.099998,313.990002,138.989998 C306.220002,211.930000,307.340002,289.070000,315.220002,361.779991 C318.000002,420.169991,348.450001,483.679993,407.980004,503.019997 C468.580002,525.239996,533.520005,481.379997,551.220009,423.219994 C601.640007,278.939995,507.170010,93.379997,355.000008,62.999992 " style="fill: rgba(0, 0, 0, 1.000000); stroke-width: 0.000000px; stroke: rgba(0, 0, 0, 1.000000); " fill="#000000" stroke="#000000" stroke-width="0.000000" />
</g><g style="">  <path d="M244.582109,63.000000 C284.792108,60.880000,279.442110,112.099998,285.592107,138.989998 C293.362107,211.930000,292.242107,289.070000,284.362107,361.779991 C281.582107,420.169991,251.132108,483.679993,191.602105,503.019997 C131.002107,525.239996,66.062104,481.379997,48.362100,423.219994 C-2.057898,278.939995,92.412099,93.379997,244.582101,62.999992 " style="fill: rgba(0, 0, 0, 1.000000); stroke-width: 0.000000px; stroke: rgba(0, 0, 0, 1.000000); " fill="#000000" stroke="#000000" stroke-width="0.000000" />
</g><g style="">  <rect x="369.000000" y="93.000000" width="21.000000" height="297.000000" rx="5.00" ry="5.00" style="fill: rgba(235, 235, 235, 1.000000); stroke-width: 0.000000px; stroke: rgba(255, 255, 255, 1.000000); " fill="#eaeaea" stroke="#feffff" stroke-width="0.000000"  />
  <rect x="404.000000" y="113.000000" width="15.000000" height="329.000000" rx="5.00" ry="5.00" style="fill: rgba(235, 235, 235, 1.000000); stroke-width: 0.000000px; stroke: rgba(255, 255, 255, 1.000000); " fill="#eaeaea" stroke="#feffff" stroke-width="0.000000"  />
  <rect x="435.000000" y="134.000000" width="17.000000" height="340.000000" rx="5.00" ry="5.00" style="fill: rgba(235, 235, 235, 1.000000); stroke-width: 0.000000px; stroke: rgba(255, 255, 255, 1.000000); " fill="#eaeaea" stroke="#feffff" stroke-width="0.000000"  />
  <rect x="466.000000" y="185.000000" width="17.000000" height="218.000000" rx="5.00" ry="5.00" style="fill: rgba(235, 235, 235, 1.000000); stroke-width: 0.000000px; stroke: rgba(255, 255, 255, 1.000000); " fill="#eaeaea" stroke="#feffff" stroke-width="0.000000"  />
  <rect x="501.000000" y="232.000000" width="17.000000" height="138.000000" rx="5.00" ry="5.00" style="fill: rgba(235, 235, 235, 1.000000); stroke-width: 0.000000px; stroke: rgba(255, 255, 255, 1.000000); " fill="#eaeaea" stroke="#feffff" stroke-width="0.000000"  />
  <path d="M501.000000,259.000000 C501.000000,259.000000,501.000000,205.367259,501.000000,199.000000 C501.000000,192.632741,518.000000,216.000000,518.000000,238.155723 C518.000000,251.437698,518.000000,259.000000,518.000000,259.000000 L501.000000,259.000000 Z " style="fill: rgba(235, 235, 235, 1.000000); stroke-width: 0.000000px; stroke: rgba(255, 255, 255, 1.000000); " fill="#eaeaea" stroke="#feffff" stroke-width="0.000000" />
  <path d="M465.751244,212.000000 C465.751244,212.000000,465.751244,155.497890,465.751244,148.789980 C465.751244,142.082070,483.000000,167.000000,483.000000,184.040548 C483.000000,198.033113,483.000000,212.000000,483.000000,212.000000 L465.751244,212.000000 Z " style="fill: rgba(235, 235, 235, 1.000000); stroke-width: 0.000000px; stroke: rgba(255, 255, 255, 1.000000); " fill="#eaeaea" stroke="#feffff" stroke-width="0.000000" />
  <path d="M435.000000,186.000000 C435.000000,186.000000,435.000000,129.497890,435.000000,122.789980 C435.000000,116.082070,452.353947,131.965493,452.248756,140.000000 C452.000000,159.000000,452.248756,186.000000,452.248756,186.000000 L435.000000,186.000000 Z " style="fill: rgba(235, 235, 235, 1.000000); stroke-width: 0.000000px; stroke: rgba(255, 255, 255, 1.000000); " fill="#eaeaea" stroke="#feffff" stroke-width="0.000000" />
  <path d="M404.000000,168.000000 C404.000000,168.000000,404.000000,111.497890,404.000000,104.789980 C404.000000,100.000000,419.000000,107.000000,418.792533,118.031936 C418.454611,136.000701,418.626439,168.000000,418.626439,168.000000 L404.000000,168.000000 Z " style="fill: rgba(235, 235, 235, 1.000000); stroke-width: 0.000000px; stroke: rgba(255, 255, 255, 1.000000); " fill="#eaeaea" stroke="#feffff" stroke-width="0.000000" />
  <rect x="213.000000" y="93.000000" width="21.000000" height="297.000000" rx="5.00" ry="5.00" style="fill: rgba(235, 235, 235, 1.000000); stroke-width: 0.000000px; stroke: rgba(255, 255, 255, 1.000000); " fill="#eaeaea" stroke="#feffff" stroke-width="0.000000"  />
  <rect x="184.000000" y="113.000000" width="15.000000" height="329.000000" rx="5.00" ry="5.00" style="fill: rgba(235, 235, 235, 1.000000); stroke-width: 0.000000px; stroke: rgba(255, 255, 255, 1.000000); " fill="#eaeaea" stroke="#feffff" stroke-width="0.000000"  />
  <rect x="151.000000" y="134.000000" width="17.000000" height="340.000000" rx="5.00" ry="5.00" style="fill: rgba(235, 235, 235, 1.000000); stroke-width: 0.000000px; stroke: rgba(255, 255, 255, 1.000000); " fill="#eaeaea" stroke="#feffff" stroke-width="0.000000"  />
  <rect x="120.000000" y="185.000000" width="17.000000" height="218.000000" rx="5.00" ry="5.00" style="fill: rgba(235, 235, 235, 1.000000); stroke-width: 0.000000px; stroke: rgba(255, 255, 255, 1.000000); " fill="#eaeaea" stroke="#feffff" stroke-width="0.000000"  />
  <rect x="85.000000" y="232.000000" width="17.000000" height="138.000000" rx="5.00" ry="5.00" style="fill: rgba(235, 235, 235, 1.000000); stroke-width: 0.000000px; stroke: rgba(255, 255, 255, 1.000000); " fill="#eaeaea" stroke="#feffff" stroke-width="0.000000"  />
  <path d="M102.000000,259.000000 C102.000000,259.000000,102.000000,205.367259,102.000000,199.000000 C102.000000,192.632741,85.000000,216.000000,85.000000,238.155723 C85.000000,251.437698,85.000000,259.000000,85.000000,259.000000 L102.000000,259.000000 Z " style="fill: rgba(235, 235, 235, 1.000000); stroke-width: 0.000000px; stroke: rgba(255, 255, 255, 1.000000); " fill="#eaeaea" stroke="#feffff" stroke-width="0.000000" />
  <path d="M137.248756,212.000000 C137.248756,212.000000,137.248756,155.497890,137.248756,148.789980 C137.248756,142.082070,120.000000,167.000000,120.000000,184.040548 C120.000000,198.033113,120.000000,212.000000,120.000000,212.000000 L137.248756,212.000000 Z " style="fill: rgba(235, 235, 235, 1.000000); stroke-width: 0.000000px; stroke: rgba(255, 255, 255, 1.000000); " fill="#eaeaea" stroke="#feffff" stroke-width="0.000000" />
  <path d="M168.000000,186.000000 C168.000000,186.000000,168.000000,129.497890,168.000000,122.789980 C168.000000,116.082070,150.646053,131.965493,150.751244,140.000000 C151.000000,159.000000,150.751244,186.000000,150.751244,186.000000 L168.000000,186.000000 Z " style="fill: rgba(235, 235, 235, 1.000000); stroke-width: 0.000000px; stroke: rgba(255, 255, 255, 1.000000); " fill="#eaeaea" stroke="#feffff" stroke-width="0.000000" />
  <path d="M199.000000,168.000000 C199.000000,168.000000,199.000000,111.497890,199.000000,104.789980 C199.000000,100.000000,184.000000,107.000000,184.207467,118.031936 C184.545389,136.000701,184.373561,168.000000,184.373561,168.000000 L199.000000,168.000000 Z " style="fill: rgba(235, 235, 235, 1.000000); stroke-width: 0.000000px; stroke: rgba(255, 255, 255, 1.000000); " fill="#eaeaea" stroke="#feffff" stroke-width="0.000000" />
</g></svg>