<svg xmlns="http://www.w3.org/2000/svg" viewBox="0 0 512 512" role="img" aria-label="hoofprint mark">
  <rect width="100%" height="100%" fill="white"/>

  <!-- Left hoof -->
  <path d="M244 78
           C184 78, 140 134, 140 214
           C140 314, 187 418, 244 418
           C266 418, 282 396, 282 362
           L282 134
           C282 102, 266 78, 244 78Z"
        fill="#000"/>

  <!-- Right hoof -->
  <path d="M268 78
           C246 78, 230 102, 230 134
           L230 362
           C230 396, 246 418, 268 418
           C325 418, 372 314, 372 214
           C372 134, 328 78, 268 78Z"
        fill="#000"/>

  <!-- Barcode cutouts (knocked out with white rects) -->
  <!-- Left cutouts -->
  <rect x="170" y="130" width="18" height="238" rx="9" fill="#fff"/>
  <rect x="197" y="110" width="12" height="275" rx="6" fill="#fff"/>
  <rect x="220" y="150" width="10" height="210" rx="5" fill="#fff"/>
  <rect x="240" y="180" width="8"  height="175" rx="4" fill="#fff"/>

  <!-- Right cutouts -->
  <rect x="324" y="130" width="18" height="238" rx="9" fill="#fff"/>
  <rect x="302" y="110" width="12" height="275" rx="6" fill="#fff"/>
  <rect x="282" y="150" width="10" height="210" rx="5" fill="#fff"/>
  <rect x="262" y="180" width="8"  height="175" rx="4" fill="#fff"/>
</svg>