<svg xmlns="http://www.w3.org/2000/svg" viewBox="0 0 512 512" role="img" aria-label="hoofprint negative space icon">
  <!-- Background plate -->
  <rect width="512" height="512" rx="64" fill="#000"/>

  <!-- Hoof void (white) -->
  <g fill="#fff">
    <!-- Left hoof void -->
    <path d="M244 92
             C178 92, 132 154, 132 236
             C132 346, 188 434, 244 434
             C277 434, 298 402, 298 362
             L298 150
             C298 118, 277 92, 244 92Z"/>

    <!-- Right hoof void -->
    <path d="M268 92
             C235 92, 214 118, 214 150
             L214 362
             C214 402, 235 434, 268 434
             C324 434, 380 346, 380 236
             C380 154, 334 92, 268 92Z"/>
  </g>

  <!-- Barcode "cuts" inside the hoof void:
       draw them in black so they read as negative inside the white hoof -->
  <g fill="#000">
    <!-- Left inner bars -->
    <rect x="172" y="152" width="18" height="252" rx="9"/>
    <rect x="202" y="132" width="12" height="285" rx="6"/>
    <rect x="228" y="172" width="10" height="220" rx="5"/>
    <rect x="250" y="206" width="8"  height="185" rx="4"/>

    <!-- Right inner bars -->
    <rect x="322" y="152" width="18" height="252" rx="9"/>
    <rect x="298" y="132" width="12" height="285" rx="6"/>
    <rect x="274" y="172" width="10" height="220" rx="5"/>
    <rect x="254" y="206" width="8"  height="185" rx="4"/>
  </g>
</svg>