<svg xmlns="http://www.w3.org/2000/svg" xmlns:v="https://svgstorm.com"
viewBox = "0 0 1024 1024"
width="1024"
height="1024">
<g fill="None" fill-opacity="0.0" stroke="#FFFFFF" stroke-opacity="1.00" stroke-width="0.3"><path d="
M 0.00 1024.00 
L 1024.00 1024.00
L 1024.00 0.00
L 0.00 0.00
L 0.00 1024.00
M 467.00 241.00 
C 497.93 250.52 492.15 292.03 498.00 318.00 C 506.53 384.97 505.04 455.63 499.00 523.00 C 494.44 577.52 481.52 639.81 428.92 668.92 C 381.49 701.99 310.16 685.92 279.75 636.25 C 216.09 536.50 251.51 400.30 326.75 316.75 C 364.65 276.51 411.67 243.78 467.00 241.00
M 568.00 241.00 
C 720.17 271.38 814.64 456.94 764.22 601.22 C 746.52 659.38 681.58 703.24 620.98 681.02 C 561.45 661.68 531.00 598.17 528.22 539.78 C 520.34 467.07 519.22 389.93 526.99 316.99 C 533.14 290.10 527.79 238.88 568.00 241.00 Z"/>
</g>
<g fill="None" fill-opacity="0.0" stroke="#000000" stroke-opacity="1.00" stroke-width="0.3"><path d="
M 467.00 241.00 
C 411.67 243.78 364.65 276.51 326.75 316.75 C 251.51 400.30 216.09 536.50 279.75 636.25 C 310.16 685.92 381.49 701.99 428.92 668.92 C 481.52 639.81 494.44 577.52 499.00 523.00 C 505.04 455.63 506.53 384.97 498.00 318.00 C 492.15 292.03 497.93 250.52 467.00 241.00
M 441.00 271.00 
C 445.64 302.58 441.69 336.51 443.00 369.00 C 442.00 433.05 444.80 500.12 441.69 563.69 C 433.34 567.18 417.53 566.61 422.00 553.00 C 422.00 464.00 422.00 375.00 422.00 286.00 C 417.62 271.75 429.49 268.78 441.00 271.00
M 408.00 281.00 
C 410.33 382.50 408.33 485.08 409.00 587.00 C 406.67 597.40 416.32 623.86 397.78 618.22 C 393.64 591.16 397.18 561.18 396.00 533.00 C 396.00 459.67 396.00 386.33 396.00 313.00 C 397.04 300.99 390.63 281.56 408.00 281.00
M 375.00 302.00 
C 377.33 407.16 375.33 513.42 376.00 619.00 C 373.33 629.81 383.87 657.60 364.78 652.22 C 360.64 608.58 364.18 562.56 363.00 518.00 C 363.00 457.33 363.00 396.67 363.00 336.00 C 362.90 323.69 359.91 305.85 375.00 302.00
M 350.00 323.00 
C 352.33 404.50 350.33 487.08 351.00 569.00 C 348.02 580.70 359.65 611.12 338.93 605.07 C 334.44 574.09 338.27 540.13 337.00 508.00 C 337.00 458.67 337.00 409.33 337.00 360.00 C 335.43 346.13 337.87 330.62 350.00 323.00
M 318.00 365.00 
C 322.64 400.22 318.69 438.57 320.00 475.00 C 320.00 487.33 320.00 499.67 320.00 512.00 C 318.70 523.65 322.66 537.86 317.90 547.90 C 305.30 550.24 291.97 548.05 297.00 532.00 C 297.00 494.33 297.00 456.67 297.00 419.00 C 297.25 399.04 307.46 380.94 318.00 365.00 Z"/>
</g>
<g fill="None" fill-opacity="0.0" stroke="#000000" stroke-opacity="1.00" stroke-width="0.3"><path d="
M 568.00 241.00 
C 527.79 238.88 533.14 290.10 526.99 316.99 C 519.22 389.93 520.34 467.07 528.22 539.78 C 531.00 598.17 561.45 661.68 620.98 681.02 C 681.58 703.24 746.52 659.38 764.22 601.22 C 814.64 456.94 720.17 271.38 568.00 241.00
M 601.00 271.00 
C 605.64 308.91 601.68 349.18 603.00 388.00 C 603.00 438.00 603.00 488.00 603.00 538.00 C 601.30 546.55 606.61 558.86 599.92 564.92 C 590.72 566.45 579.06 565.51 583.00 553.00 C 583.00 463.00 583.00 373.00 583.00 283.00 C 578.84 269.42 591.38 270.09 601.00 271.00
M 620.00 281.00 
C 633.67 283.95 629.62 299.02 630.00 310.00 C 630.00 401.00 630.00 492.00 630.00 583.00 C 628.13 594.50 633.86 609.93 626.92 618.92 C 610.10 622.47 619.34 599.72 617.00 590.00 C 617.00 499.00 617.00 408.00 617.00 317.00 C 618.89 305.64 613.15 289.15 620.00 281.00
M 651.00 301.00 
C 673.89 310.91 665.71 337.73 667.00 358.00 C 667.00 444.33 667.00 530.67 667.00 617.00 C 665.87 628.55 669.28 641.74 665.25 652.25 C 650.41 658.77 647.72 644.65 650.00 633.00 C 650.66 522.42 648.67 411.13 651.00 301.00
M 683.00 329.00 
C 701.53 349.76 691.50 380.04 694.00 406.00 C 694.00 450.00 694.00 494.00 694.00 538.00 C 692.45 551.49 698.55 566.29 692.75 578.75 C 673.13 584.00 683.57 558.08 681.00 547.00 C 681.00 488.33 681.00 429.67 681.00 371.00 C 682.31 357.32 678.36 341.09 683.00 329.00
M 715.00 376.00 
C 739.90 410.63 726.85 455.46 731.00 496.00 C 731.00 507.33 731.00 518.67 731.00 530.00 C 732.62 540.97 729.11 551.72 715.78 546.22 C 711.63 513.82 715.18 478.52 714.00 445.00 C 714.67 422.17 712.67 398.01 715.00 376.00 Z"/>
</g>
<g fill="None" fill-opacity="0.0" stroke="#FFFFFF" stroke-opacity="1.00" stroke-width="0.3"><path d="
M 441.00 271.00 
C 429.49 268.78 417.62 271.75 422.00 286.00 C 422.00 375.00 422.00 464.00 422.00 553.00 C 417.53 566.61 433.34 567.18 441.69 563.69 C 444.80 500.12 442.00 433.05 443.00 369.00 C 441.69 336.51 445.64 302.58 441.00 271.00 Z"/>
</g>
<g fill="None" fill-opacity="0.0" stroke="#FFFFFF" stroke-opacity="1.00" stroke-width="0.3"><path d="
M 601.00 271.00 
C 591.38 270.09 578.84 269.42 583.00 283.00 C 583.00 373.00 583.00 463.00 583.00 553.00 C 579.06 565.51 590.72 566.45 599.92 564.92 C 606.61 558.86 601.30 546.55 603.00 538.00 C 603.00 488.00 603.00 438.00 603.00 388.00 C 601.68 349.18 605.64 308.91 601.00 271.00 Z"/>
</g>
<g fill="None" fill-opacity="0.0" stroke="#FFFFFF" stroke-opacity="1.00" stroke-width="0.3"><path d="
M 408.00 281.00 
C 390.63 281.56 397.04 300.99 396.00 313.00 C 396.00 386.33 396.00 459.67 396.00 533.00 C 397.18 561.18 393.64 591.16 397.78 618.22 C 416.32 623.86 406.67 597.40 409.00 587.00 C 408.33 485.08 410.33 382.50 408.00 281.00 Z"/>
</g>
<g fill="None" fill-opacity="0.0" stroke="#FFFFFF" stroke-opacity="1.00" stroke-width="0.3"><path d="
M 620.00 281.00 
C 613.15 289.15 618.89 305.64 617.00 317.00 C 617.00 408.00 617.00 499.00 617.00 590.00 C 619.34 599.72 610.10 622.47 626.92 618.92 C 633.86 609.93 628.13 594.50 630.00 583.00 C 630.00 492.00 630.00 401.00 630.00 310.00 C 629.62 299.02 633.67 283.95 620.00 281.00 Z"/>
</g>
<g fill="None" fill-opacity="0.0" stroke="#FFFFFF" stroke-opacity="1.00" stroke-width="0.3"><path d="
M 651.00 301.00 
C 648.67 411.13 650.66 522.42 650.00 633.00 C 647.72 644.65 650.41 658.77 665.25 652.25 C 669.28 641.74 665.87 628.55 667.00 617.00 C 667.00 530.67 667.00 444.33 667.00 358.00 C 665.71 337.73 673.89 310.91 651.00 301.00 Z"/>
</g>
<g fill="None" fill-opacity="0.0" stroke="#FFFFFF" stroke-opacity="1.00" stroke-width="0.3"><path d="
M 375.00 302.00 
C 359.91 305.85 362.90 323.69 363.00 336.00 C 363.00 396.67 363.00 457.33 363.00 518.00 C 364.18 562.56 360.64 608.58 364.78 652.22 C 383.87 657.60 373.33 629.81 376.00 619.00 C 375.33 513.42 377.33 407.16 375.00 302.00 Z"/>
</g>
<g fill="None" fill-opacity="0.0" stroke="#FFFFFF" stroke-opacity="1.00" stroke-width="0.3"><path d="
M 350.00 323.00 
C 337.87 330.62 335.43 346.13 337.00 360.00 C 337.00 409.33 337.00 458.67 337.00 508.00 C 338.27 540.13 334.44 574.09 338.93 605.07 C 359.65 611.12 348.02 580.70 351.00 569.00 C 350.33 487.08 352.33 404.50 350.00 323.00 Z"/>
</g>
<g fill="None" fill-opacity="0.0" stroke="#FFFFFF" stroke-opacity="1.00" stroke-width="0.3"><path d="
M 683.00 329.00 
C 678.36 341.09 682.31 357.32 681.00 371.00 C 681.00 429.67 681.00 488.33 681.00 547.00 C 683.57 558.08 673.13 584.00 692.75 578.75 C 698.55 566.29 692.45 551.49 694.00 538.00 C 694.00 494.00 694.00 450.00 694.00 406.00 C 691.50 380.04 701.53 349.76 683.00 329.00 Z"/>
</g>
<g fill="None" fill-opacity="0.0" stroke="#FFFFFF" stroke-opacity="1.00" stroke-width="0.3"><path d="
M 318.00 365.00 
C 307.46 380.94 297.25 399.04 297.00 419.00 C 297.00 456.67 297.00 494.33 297.00 532.00 C 291.97 548.05 305.30 550.24 317.90 547.90 C 322.66 537.86 318.70 523.65 320.00 512.00 C 320.00 499.67 320.00 487.33 320.00 475.00 C 318.69 438.57 322.64 400.22 318.00 365.00 Z"/>
</g>
<g fill="None" fill-opacity="0.0" stroke="#FFFFFF" stroke-opacity="1.00" stroke-width="0.3"><path d="
M 715.00 376.00 
C 712.67 398.01 714.67 422.17 714.00 445.00 C 715.18 478.52 711.63 513.82 715.78 546.22 C 729.11 551.72 732.62 540.97 731.00 530.00 C 731.00 518.67 731.00 507.33 731.00 496.00 C 726.85 455.46 739.90 410.63 715.00 376.00 Z"/>
</g>
<g fill="#FFFFFF" fill-opacity="1.00" stroke="None">
<path d="
M 0.00 1024.00 
L 1024.00 1024.00
L 1024.00 0.00
L 0.00 0.00
L 0.00 1024.00
M 467.00 241.00 
C 497.93 250.52 492.15 292.03 498.00 318.00 C 506.53 384.97 505.04 455.63 499.00 523.00 C 494.44 577.52 481.52 639.81 428.92 668.92 C 381.49 701.99 310.16 685.92 279.75 636.25 C 216.09 536.50 251.51 400.30 326.75 316.75 C 364.65 276.51 411.67 243.78 467.00 241.00
M 568.00 241.00 
C 720.17 271.38 814.64 456.94 764.22 601.22 C 746.52 659.38 681.58 703.24 620.98 681.02 C 561.45 661.68 531.00 598.17 528.22 539.78 C 520.34 467.07 519.22 389.93 526.99 316.99 C 533.14 290.10 527.79 238.88 568.00 241.00 Z"/>
</g>
<g fill="#000000" fill-opacity="1.00" stroke="None">
<path d="
M 467.00 241.00 
C 411.67 243.78 364.65 276.51 326.75 316.75 C 251.51 400.30 216.09 536.50 279.75 636.25 C 310.16 685.92 381.49 701.99 428.92 668.92 C 481.52 639.81 494.44 577.52 499.00 523.00 C 505.04 455.63 506.53 384.97 498.00 318.00 C 492.15 292.03 497.93 250.52 467.00 241.00
M 441.00 271.00 
C 445.64 302.58 441.69 336.51 443.00 369.00 C 442.00 433.05 444.80 500.12 441.69 563.69 C 433.34 567.18 417.53 566.61 422.00 553.00 C 422.00 464.00 422.00 375.00 422.00 286.00 C 417.62 271.75 429.49 268.78 441.00 271.00
M 408.00 281.00 
C 410.33 382.50 408.33 485.08 409.00 587.00 C 406.67 597.40 416.32 623.86 397.78 618.22 C 393.64 591.16 397.18 561.18 396.00 533.00 C 396.00 459.67 396.00 386.33 396.00 313.00 C 397.04 300.99 390.63 281.56 408.00 281.00
M 375.00 302.00 
C 377.33 407.16 375.33 513.42 376.00 619.00 C 373.33 629.81 383.87 657.60 364.78 652.22 C 360.64 608.58 364.18 562.56 363.00 518.00 C 363.00 457.33 363.00 396.67 363.00 336.00 C 362.90 323.69 359.91 305.85 375.00 302.00
M 350.00 323.00 
C 352.33 404.50 350.33 487.08 351.00 569.00 C 348.02 580.70 359.65 611.12 338.93 605.07 C 334.44 574.09 338.27 540.13 337.00 508.00 C 337.00 458.67 337.00 409.33 337.00 360.00 C 335.43 346.13 337.87 330.62 350.00 323.00
M 318.00 365.00 
C 322.64 400.22 318.69 438.57 320.00 475.00 C 320.00 487.33 320.00 499.67 320.00 512.00 C 318.70 523.65 322.66 537.86 317.90 547.90 C 305.30 550.24 291.97 548.05 297.00 532.00 C 297.00 494.33 297.00 456.67 297.00 419.00 C 297.25 399.04 307.46 380.94 318.00 365.00 Z"/>
</g>
<g fill="#000000" fill-opacity="1.00" stroke="None">
<path d="
M 568.00 241.00 
C 527.79 238.88 533.14 290.10 526.99 316.99 C 519.22 389.93 520.34 467.07 528.22 539.78 C 531.00 598.17 561.45 661.68 620.98 681.02 C 681.58 703.24 746.52 659.38 764.22 601.22 C 814.64 456.94 720.17 271.38 568.00 241.00
M 601.00 271.00 
C 605.64 308.91 601.68 349.18 603.00 388.00 C 603.00 438.00 603.00 488.00 603.00 538.00 C 601.30 546.55 606.61 558.86 599.92 564.92 C 590.72 566.45 579.06 565.51 583.00 553.00 C 583.00 463.00 583.00 373.00 583.00 283.00 C 578.84 269.42 591.38 270.09 601.00 271.00
M 620.00 281.00 
C 633.67 283.95 629.62 299.02 630.00 310.00 C 630.00 401.00 630.00 492.00 630.00 583.00 C 628.13 594.50 633.86 609.93 626.92 618.92 C 610.10 622.47 619.34 599.72 617.00 590.00 C 617.00 499.00 617.00 408.00 617.00 317.00 C 618.89 305.64 613.15 289.15 620.00 281.00
M 651.00 301.00 
C 673.89 310.91 665.71 337.73 667.00 358.00 C 667.00 444.33 667.00 530.67 667.00 617.00 C 665.87 628.55 669.28 641.74 665.25 652.25 C 650.41 658.77 647.72 644.65 650.00 633.00 C 650.66 522.42 648.67 411.13 651.00 301.00
M 683.00 329.00 
C 701.53 349.76 691.50 380.04 694.00 406.00 C 694.00 450.00 694.00 494.00 694.00 538.00 C 692.45 551.49 698.55 566.29 692.75 578.75 C 673.13 584.00 683.57 558.08 681.00 547.00 C 681.00 488.33 681.00 429.67 681.00 371.00 C 682.31 357.32 678.36 341.09 683.00 329.00
M 715.00 376.00 
C 739.90 410.63 726.85 455.46 731.00 496.00 C 731.00 507.33 731.00 518.67 731.00 530.00 C 732.62 540.97 729.11 551.72 715.78 546.22 C 711.63 513.82 715.18 478.52 714.00 445.00 C 714.67 422.17 712.67 398.01 715.00 376.00 Z"/>
</g>
<g fill="#FFFFFF" fill-opacity="1.00" stroke="None">
<path d="
M 441.00 271.00 
C 429.49 268.78 417.62 271.75 422.00 286.00 C 422.00 375.00 422.00 464.00 422.00 553.00 C 417.53 566.61 433.34 567.18 441.69 563.69 C 444.80 500.12 442.00 433.05 443.00 369.00 C 441.69 336.51 445.64 302.58 441.00 271.00 Z"/>
</g>
<g fill="#FFFFFF" fill-opacity="1.00" stroke="None">
<path d="
M 601.00 271.00 
C 591.38 270.09 578.84 269.42 583.00 283.00 C 583.00 373.00 583.00 463.00 583.00 553.00 C 579.06 565.51 590.72 566.45 599.92 564.92 C 606.61 558.86 601.30 546.55 603.00 538.00 C 603.00 488.00 603.00 438.00 603.00 388.00 C 601.68 349.18 605.64 308.91 601.00 271.00 Z"/>
</g>
<g fill="#FFFFFF" fill-opacity="1.00" stroke="None">
<path d="
M 408.00 281.00 
C 390.63 281.56 397.04 300.99 396.00 313.00 C 396.00 386.33 396.00 459.67 396.00 533.00 C 397.18 561.18 393.64 591.16 397.78 618.22 C 416.32 623.86 406.67 597.40 409.00 587.00 C 408.33 485.08 410.33 382.50 408.00 281.00 Z"/>
</g>
<g fill="#FFFFFF" fill-opacity="1.00" stroke="None">
<path d="
M 620.00 281.00 
C 613.15 289.15 618.89 305.64 617.00 317.00 C 617.00 408.00 617.00 499.00 617.00 590.00 C 619.34 599.72 610.10 622.47 626.92 618.92 C 633.86 609.93 628.13 594.50 630.00 583.00 C 630.00 492.00 630.00 401.00 630.00 310.00 C 629.62 299.02 633.67 283.95 620.00 281.00 Z"/>
</g>
<g fill="#FFFFFF" fill-opacity="1.00" stroke="None">
<path d="
M 651.00 301.00 
C 648.67 411.13 650.66 522.42 650.00 633.00 C 647.72 644.65 650.41 658.77 665.25 652.25 C 669.28 641.74 665.87 628.55 667.00 617.00 C 667.00 530.67 667.00 444.33 667.00 358.00 C 665.71 337.73 673.89 310.91 651.00 301.00 Z"/>
</g>
<g fill="#FFFFFF" fill-opacity="1.00" stroke="None">
<path d="
M 375.00 302.00 
C 359.91 305.85 362.90 323.69 363.00 336.00 C 363.00 396.67 363.00 457.33 363.00 518.00 C 364.18 562.56 360.64 608.58 364.78 652.22 C 383.87 657.60 373.33 629.81 376.00 619.00 C 375.33 513.42 377.33 407.16 375.00 302.00 Z"/>
</g>
<g fill="#FFFFFF" fill-opacity="1.00" stroke="None">
<path d="
M 350.00 323.00 
C 337.87 330.62 335.43 346.13 337.00 360.00 C 337.00 409.33 337.00 458.67 337.00 508.00 C 338.27 540.13 334.44 574.09 338.93 605.07 C 359.65 611.12 348.02 580.70 351.00 569.00 C 350.33 487.08 352.33 404.50 350.00 323.00 Z"/>
</g>
<g fill="#FFFFFF" fill-opacity="1.00" stroke="None">
<path d="
M 683.00 329.00 
C 678.36 341.09 682.31 357.32 681.00 371.00 C 681.00 429.67 681.00 488.33 681.00 547.00 C 683.57 558.08 673.13 584.00 692.75 578.75 C 698.55 566.29 692.45 551.49 694.00 538.00 C 694.00 494.00 694.00 450.00 694.00 406.00 C 691.50 380.04 701.53 349.76 683.00 329.00 Z"/>
</g>
<g fill="#FFFFFF" fill-opacity="1.00" stroke="None">
<path d="
M 318.00 365.00 
C 307.46 380.94 297.25 399.04 297.00 419.00 C 297.00 456.67 297.00 494.33 297.00 532.00 C 291.97 548.05 305.30 550.24 317.90 547.90 C 322.66 537.86 318.70 523.65 320.00 512.00 C 320.00 499.67 320.00 487.33 320.00 475.00 C 318.69 438.57 322.64 400.22 318.00 365.00 Z"/>
</g>
<g fill="#FFFFFF" fill-opacity="1.00" stroke="None">
<path d="
M 715.00 376.00 
C 712.67 398.01 714.67 422.17 714.00 445.00 C 715.18 478.52 711.63 513.82 715.78 546.22 C 729.11 551.72 732.62 540.97 731.00 530.00 C 731.00 518.67 731.00 507.33 731.00 496.00 C 726.85 455.46 739.90 410.63 715.00 376.00 Z"/>
</g>
</svg>